<?xml version="1.0" standalone="no"?>
<!DOCTYPE svg PUBLIC "-//W3C//DTD SVG 20010904//EN"
 "http://www.w3.org/TR/2001/REC-SVG-20010904/DTD/svg10.dtd">
<svg version="1.0" xmlns="http://www.w3.org/2000/svg"
 width="1024.000000pt" height="1024.000000pt" viewBox="0 0 1024.000000 1024.000000"
 preserveAspectRatio="xMidYMid meet">

<g transform="translate(0.000000,1024.000000) scale(0.100000,-0.100000)"
fill="#000000" stroke="none">
<path d="M6473 8614 c-612 -95 -1039 -429 -1092 -854 -6 -45 -8 -86 -5 -91 2
-5 -24 -22 -58 -40 -88 -44 -221 -124 -299 -181 l-67 -48 -88 61 c-459 314
-1099 506 -1749 526 -315 10 -513 -20 -592 -90 -58 -51 -73 -95 -73 -217 l0
-106 -84 -11 c-46 -6 -98 -19 -115 -28 -38 -19 -67 -64 -76 -116 -6 -37 -8
-38 -63 -49 -134 -28 -192 -90 -192 -206 0 -32 20 -342 45 -689 24 -346 63
-889 85 -1205 22 -316 45 -591 50 -610 23 -84 77 -134 160 -146 27 -5 101 0
185 10 679 87 1226 84 1790 -9 179 -30 303 -61 485 -120 224 -73 302 -75 441
-15 141 62 422 130 679 164 261 35 370 41 715 40 355 0 488 -8 785 -45 302
-38 398 -14 438 111 7 19 21 166 32 325 58 826 81 1129 84 1132 2 2 19 -5 37
-16 48 -30 102 -28 127 4 19 24 20 37 15 228 l-6 203 54 39 c337 240 451 640
284 992 -48 102 -85 154 -190 263 -69 72 -100 112 -124 165 -146 316 -547 561
-1034 630 -132 19 -459 18 -584 -1z m537 -115 c522 -58 941 -347 1016 -700 21
-100 14 -223 -19 -311 -37 -103 -84 -174 -172 -264 -158 -161 -377 -271 -670
-336 -132 -30 -424 -31 -657 -4 l-156 18 -239 -125 c-131 -69 -239 -122 -241
-117 -2 5 11 92 27 195 17 102 31 194 31 204 0 11 -25 35 -67 63 -325 216
-439 550 -287 839 204 388 795 609 1434 538z m-3545 -683 c311 -45 554 -108
830 -218 197 -78 483 -240 572 -324 l33 -31 0 -1262 c0 -693 -2 -1261 -4
-1261 -2 0 -77 37 -167 83 -366 186 -751 303 -1164 353 -142 17 -456 24 -663
14 -102 -5 -104 -5 -126 21 -30 34 -28 19 -76 774 -59 930 -77 1222 -97 1503
-16 243 -16 254 1 286 21 40 67 63 151 76 92 14 581 4 710 -14z m4809 -277
c96 -176 103 -407 16 -578 -63 -126 -177 -244 -314 -324 l-48 -28 6 -77 c3
-42 8 -126 12 -186 l6 -109 -31 19 c-17 10 -109 69 -204 130 l-172 111 -55 -8
c-148 -21 -436 -6 -598 32 -96 22 -245 69 -239 75 2 2 18 -1 36 -7 17 -6 38
-8 47 -5 8 3 12 2 9 -4 -9 -14 9 -12 24 3 10 10 11 9 6 -4 -4 -11 1 -18 17
-23 33 -8 190 -7 185 2 -3 4 36 7 87 7 226 1 509 97 727 246 96 66 213 184
204 206 -2 8 -1 12 4 9 13 -8 34 21 25 35 -5 8 -3 9 6 4 10 -6 12 -4 7 8 -4
12 -2 14 10 10 11 -4 14 -2 9 5 -4 7 -2 12 4 12 6 0 8 5 5 10 -3 6 -2 10 3 10
12 0 66 119 86 189 17 60 21 147 7 155 -5 4 -5 22 0 43 5 21 9 71 9 112 l0 74
34 -45 c19 -25 51 -74 70 -109z m-2864 -81 c7 -24 25 -69 41 -100 16 -32 29
-60 29 -62 0 -3 -22 -15 -50 -27 -29 -12 -50 -28 -50 -37 0 -21 58 -109 76
-116 18 -7 49 7 82 37 l22 21 58 -55 c31 -31 77 -72 102 -93 50 -42 50 -39 25
-202 -8 -50 -19 -135 -25 -188 -10 -86 -9 -99 6 -126 10 -16 31 -35 47 -41 28
-12 42 -6 233 89 112 56 209 102 215 102 5 0 36 -17 67 -39 138 -93 215 -132
362 -182 171 -59 345 -94 500 -101 l55 -3 -4 -90 c-1 -49 -18 -298 -36 -552
-34 -485 -36 -497 -84 -522 -13 -7 -63 -7 -157 0 -141 11 -335 7 -524 -12
-442 -44 -881 -175 -1267 -379 -62 -33 -115 -60 -118 -60 -3 0 -5 571 -5 1269
l0 1269 68 49 c120 88 289 192 313 193 3 0 12 -19 19 -42z m-2946 -70 c3 -24
12 -160 21 -303 9 -143 29 -460 46 -705 16 -245 40 -618 54 -830 14 -212 30
-402 36 -422 7 -20 27 -52 46 -70 39 -38 -21 -34 473 -27 467 7 854 -69 1284
-253 130 -55 221 -99 171 -83 -11 4 -65 23 -120 42 -547 188 -1256 240 -1880
138 -49 -8 -93 -11 -96 -7 -8 9 -31 320 -104 1402 -8 124 -29 429 -46 678 -17
250 -28 456 -25 459 7 7 72 20 108 22 24 1 27 -3 32 -41z m5526 -242 c0 -2 -8
-10 -17 -17 -16 -13 -17 -12 -4 4 13 16 21 21 21 13z m-643 -402 c-3 -3 -12
-4 -19 -1 -8 3 -5 6 6 6 11 1 17 -2 13 -5z m-34 -11 c3 -5 -14 -9 -37 -9 -33
-2 -36 0 -16 6 34 11 48 11 53 3z m-101 -20 c-12 -2 -20 -7 -18 -11 2 -4 -10
-7 -27 -8 -37 -1 -136 -13 -154 -19 -7 -3 -13 0 -13 5 0 6 15 10 33 11 17 1
61 7 97 14 36 7 74 12 85 12 16 0 15 -1 -3 -4z m-767 -13 c3 -6 -1 -7 -9 -4
-18 7 -21 14 -7 14 6 0 13 -4 16 -10z m80 -10 c4 -6 1 -9 -7 -8 -7 2 -12 -3
-10 -10 2 -10 -2 -10 -18 -2 -11 6 -20 15 -20 20 0 13 47 13 55 0z m192 -16
c-3 -3 -12 -4 -19 -1 -8 3 -5 6 6 6 11 1 17 -2 13 -5z m146 -1 c-7 -2 -21 -2
-30 0 -10 3 -4 5 12 5 17 0 24 -2 18 -5z m75 0 c-10 -2 -28 -2 -40 0 -13 2 -5
4 17 4 22 1 32 -1 23 -4z m-108 -67 c0 -2 -8 -10 -17 -17 -16 -13 -17 -12 -4
4 13 16 21 21 21 13z m655 -464 c-3 -31 -14 -178 -25 -327 -69 -972 -66 -945
-88 -945 -10 0 -80 9 -157 20 -606 84 -1257 27 -1811 -160 -48 -17 -89 -28
-91 -27 -6 7 277 122 401 164 394 132 824 189 1224 163 l191 -13 48 24 c86 43
88 54 118 489 14 206 30 431 35 500 5 69 10 133 10 142 0 14 11 18 57 20 31 2
65 4 75 5 17 2 18 -4 13 -55z m236 -114 c8 -7 9 -9 2 -4 -8 5 -20 3 -30 -5
-16 -13 -17 -12 -4 4 8 11 9 17 2 17 -14 0 -38 -50 -35 -77 0 -12 -2 -20 -6
-18 -11 7 -3 53 13 79 13 19 13 23 1 23 -8 0 -12 -2 -9 -5 2 -2 -2 -16 -9 -31
-7 -14 -11 -42 -9 -61 2 -25 0 -31 -7 -20 -6 10 -10 -3 -13 -45 -2 -33 -2 -8
0 55 5 155 5 155 51 125 20 -13 44 -30 53 -37z m-5446 -253 l0 -80 -32 0 c-18
0 -33 -4 -33 -9 0 -5 -3 -6 -7 -3 -3 4 -12 2 -18 -3 -13 -11 -25 75 -25 186 0
58 2 62 25 66 13 3 33 -1 44 -9 15 -10 22 -10 27 -2 5 8 3 9 -5 4 -9 -5 -9 -1
1 14 12 20 13 18 18 -31 3 -29 6 -89 5 -133z m5400 137 c-3 -3 -11 0 -18 7 -9
10 -8 11 6 5 10 -3 15 -9 12 -12z m-68 -214 c-2 -18 -4 -6 -4 27 0 33 2 48 4
33 2 -15 2 -42 0 -60z m100 -55 c-2 -16 -4 -5 -4 22 0 28 2 40 4 28 2 -13 2
-35 0 -50z m-107 -35 c-4 -49 -5 -50 -8 -14 -3 34 2 66 10 66 2 0 1 -24 -2
-52z m97 -120 c-2 -13 -4 -3 -4 22 0 25 2 35 4 23 2 -13 2 -33 0 -45z m-1464
-745 c-7 -2 -19 -2 -25 0 -7 3 -2 5 12 5 14 0 19 -2 13 -5z m-70 -10 c-13 -2
-33 -2 -45 0 -13 2 -3 4 22 4 25 0 35 -2 23 -4z m-100 -10 c-7 -2 -19 -2 -25
0 -7 3 -2 5 12 5 14 0 19 -2 13 -5z"/>
<path d="M6212 8192 c-23 -23 -322 -762 -322 -797 0 -22 33 -35 93 -35 66 0
75 9 114 110 l29 75 169 0 169 0 32 -84 c19 -47 39 -88 46 -93 15 -9 119 -11
142 -2 9 3 16 16 16 28 0 17 -173 460 -286 732 -30 71 -50 84 -129 84 -40 0
-60 -5 -73 -18z m171 -424 l26 -68 -114 0 -114 0 40 113 c23 61 48 132 56 156
l16 44 32 -89 c18 -49 44 -119 58 -156z"/>
<path d="M3462 7491 c-115 -75 -175 -145 -265 -312 -47 -86 -154 -187 -231
-219 -31 -13 -56 -27 -56 -30 0 -14 58 -33 117 -37 l62 -6 -29 -51 c-76 -137
-117 -322 -107 -490 6 -102 31 -211 46 -202 5 3 14 27 21 52 l14 47 26 -84
c27 -86 60 -144 134 -232 35 -42 124 -117 139 -117 3 0 -3 23 -14 50 -27 71
-24 76 21 40 24 -19 53 -57 71 -93 34 -67 30 -77 -29 -77 -18 0 -42 -5 -53
-10 -29 -16 -25 -75 10 -133 l28 -48 -18 -52 c-10 -28 -15 -55 -13 -59 3 -5
27 -8 54 -8 64 0 242 -18 305 -30 28 -6 118 -23 200 -40 237 -47 549 -147 755
-243 l95 -44 2 363 3 364 -68 -68 c-150 -152 -425 -232 -658 -193 -248 42
-464 172 -538 323 -15 30 -38 109 -51 174 -13 65 -27 133 -31 149 l-7 30 20
-24 20 -25 -5 77 c-6 93 -4 95 111 163 95 57 140 62 222 25 l50 -22 -34 35
c-18 19 -47 40 -62 47 -16 6 -29 13 -29 14 0 1 29 33 65 69 36 37 93 104 126
149 34 45 64 83 68 85 26 10 -49 -412 -91 -506 l-20 -47 -12 30 c-34 92 -84
135 -157 135 -78 0 -129 -79 -129 -200 0 -30 5 -71 10 -91 35 -126 154 -176
233 -98 24 25 28 35 23 61 -5 24 -2 34 14 45 15 11 20 25 20 61 0 46 1 47 43
65 23 9 81 46 129 81 151 112 242 253 294 454 10 40 21 72 25 72 4 0 24 -39
45 -87 22 -49 67 -146 102 -216 34 -70 62 -130 62 -132 0 -1 -21 3 -47 11 -61
18 -125 9 -164 -23 -39 -34 -37 -43 9 -27 49 17 95 17 137 0 40 -17 47 -31 10
-22 -57 14 -128 -45 -156 -129 -18 -57 -16 -154 5 -208 20 -53 71 -102 115
-112 67 -14 151 44 151 105 0 20 7 33 21 41 20 10 21 17 16 93 l-5 81 21 -40
21 -40 6 33 5 34 29 -46 c16 -25 29 -46 30 -46 1 0 0 591 -2 800 l-2 165 -112
67 c-214 127 -473 231 -758 303 -117 30 -294 65 -326 65 -11 0 -48 -18 -82
-39z m48 -327 c0 -32 42 -94 96 -142 l56 -50 -24 -54 c-14 -29 -34 -64 -44
-76 -19 -22 -23 -23 -64 -12 -25 6 -73 27 -107 46 -34 19 -73 34 -87 34 -32 0
-33 15 -4 83 34 82 96 167 131 182 35 14 47 12 47 -11z m718 -220 c20 -4 22
-10 21 -67 0 -34 -6 -82 -12 -106 -11 -39 -16 -46 -47 -54 -38 -10 -169 -5
-189 7 -12 8 -10 93 5 199 l6 37 96 -5 c54 -4 107 -8 120 -11z m311 -106 c18
-39 31 -72 29 -74 -5 -5 -131 -24 -135 -20 -2 2 -19 40 -38 84 l-34 81 62 3
c34 2 67 2 73 0 7 -2 26 -35 43 -74z m-679 46 c22 -9 40 -19 40 -23 0 -12 -38
-49 -70 -68 -17 -9 -28 -23 -26 -29 2 -6 -2 -11 -10 -11 -8 0 -14 7 -14 15 0
10 -8 13 -29 10 -29 -4 -29 -4 -16 21 7 14 20 43 28 64 18 42 34 46 97 21z
m-160 -14 c-6 -11 -13 -20 -16 -20 -2 0 0 9 6 20 6 11 13 20 16 20 2 0 0 -9
-6 -20z m69 -524 c17 -20 10 -67 -11 -80 -36 -22 -77 51 -46 82 16 16 43 15
57 -2z m807 -61 c14 -21 15 -31 6 -50 -14 -31 -57 -34 -72 -6 -33 63 28 114
66 56z m-1208 -243 l5 -74 -26 17 c-46 30 -61 63 -59 138 0 40 6 75 14 84 21
25 60 -73 66 -165z m444 -543 l97 -32 -20 -29 c-24 -34 -32 -34 -104 -7 -63
23 -118 67 -141 110 -21 41 -18 42 29 15 23 -13 86 -39 139 -57z m757 -35 l14
-47 -34 -28 c-50 -41 -156 -91 -203 -96 -32 -3 -54 4 -101 29 -55 31 -98 78
-83 93 4 4 44 11 90 17 46 5 128 25 183 43 55 18 105 34 110 34 6 1 17 -20 24
-45z"/>
<path d="M3950 5821 c0 -5 12 -19 26 -30 34 -27 157 -30 192 -5 29 20 19 36
-14 24 -37 -15 -135 -11 -164 5 -30 17 -40 18 -40 6z"/>
<path d="M2234 5726 c1 -8 5 -18 8 -22 4 -3 5 1 4 10 -1 8 -5 18 -8 22 -4 3
-5 -1 -4 -10z"/>
<path d="M3001 4281 c-62 -16 -72 -36 -87 -172 -17 -165 -51 -515 -64 -664 -9
-105 -8 -121 6 -132 45 -34 195 -27 218 10 14 22 28 161 42 415 4 67 10 122
15 122 4 0 47 -75 95 -167 104 -200 124 -223 189 -223 65 0 83 22 190 220 97
181 93 175 99 169 3 -2 13 -121 22 -263 21 -310 17 -299 125 -300 41 -1 90 2
110 7 l35 7 -13 143 c-22 254 -43 489 -54 612 -15 186 -29 210 -125 221 -93
11 -109 -3 -204 -177 -47 -85 -105 -193 -130 -241 -25 -49 -47 -88 -50 -88 -3
0 -59 105 -125 232 -76 146 -130 239 -146 251 -30 22 -98 30 -148 18z m496
-547 c-3 -3 -12 -4 -19 -1 -8 3 -5 6 6 6 11 1 17 -2 13 -5z m-142 -134 c-3 -5
-12 -10 -18 -10 -7 0 -6 4 3 10 19 12 23 12 15 0z"/>
<path d="M6685 3979 c-104 -15 -196 -54 -216 -90 -14 -27 12 -102 44 -124 30
-21 56 -19 120 10 111 51 207 27 207 -52 0 -32 -1 -33 -44 -33 -72 0 -195 -28
-261 -59 -77 -36 -107 -75 -113 -148 -5 -64 9 -103 54 -143 89 -78 237 -72
358 13 22 15 31 18 34 8 2 -7 14 -24 26 -38 18 -21 34 -27 79 -31 72 -6 103 2
123 33 15 23 15 28 0 65 -12 31 -16 76 -16 193 -1 174 -9 223 -51 288 -35 55
-99 93 -183 108 -66 12 -76 12 -161 0z m155 -437 c0 -56 -55 -102 -121 -102
-57 0 -88 51 -56 93 17 24 82 46 135 47 l42 0 0 -38z"/>
<path d="M4229 3955 c-94 -31 -124 -59 -115 -109 9 -45 51 -96 79 -96 12 0 47
12 77 27 110 52 210 27 210 -52 l0 -32 -82 -7 c-193 -15 -301 -74 -329 -178
-10 -36 -10 -55 -1 -86 28 -92 95 -135 213 -134 65 0 85 5 137 31 33 17 63 35
67 41 10 16 23 12 30 -11 11 -34 64 -59 125 -59 54 1 72 8 98 41 10 13 10 23
0 45 -6 17 -14 109 -18 214 -6 162 -10 192 -30 238 -46 105 -136 152 -294 152
-68 -1 -110 -7 -167 -25z m256 -412 c-3 -24 -14 -46 -34 -67 -26 -26 -38 -30
-83 -31 -46 0 -54 3 -67 27 -14 25 -14 29 5 55 23 31 77 51 141 52 l41 1 -3
-37z"/>
<path d="M5940 3969 c-142 -20 -245 -91 -301 -204 -27 -56 -31 -73 -31 -150 0
-77 4 -94 31 -150 52 -105 126 -149 252 -150 80 0 89 2 138 33 29 17 54 32 57
32 2 0 4 -21 4 -47 0 -117 -102 -172 -257 -139 -76 16 -89 9 -101 -55 -12 -65
-2 -84 51 -97 121 -31 270 -23 363 18 61 26 118 83 145 143 23 51 24 60 27
384 l3 332 -65 20 c-61 19 -209 43 -246 40 -8 -1 -40 -5 -70 -10z m150 -280
c0 -106 -2 -124 -21 -150 -27 -38 -69 -59 -116 -59 -71 1 -107 57 -101 155 7
112 74 174 186 175 l52 0 0 -121z"/>
<path d="M4866 3961 l-28 -6 1 -320 c2 -236 5 -321 14 -327 18 -12 185 -10
208 2 18 10 19 23 19 193 0 163 2 185 20 214 22 37 67 63 107 63 66 -1 73 -24
73 -253 0 -236 -3 -231 118 -230 133 1 122 -20 122 225 0 231 -11 321 -44 370
-56 84 -190 105 -305 47 -34 -17 -67 -40 -74 -50 -17 -27 -24 -24 -31 16 -9
49 -38 65 -111 64 -33 -1 -73 -4 -89 -8z"/>
<path d="M5468 3133 c-15 -4 -16 -18 -11 -143 l6 -139 -44 10 c-91 21 -224
-24 -285 -95 -91 -106 -82 -304 17 -378 93 -69 198 -62 280 18 l36 36 7 -35
c9 -50 26 -60 96 -55 33 2 61 6 62 9 2 2 1 169 -2 370 -6 425 -2 410 -94 408
-28 -1 -59 -3 -68 -6z m-16 -399 c5 -3 8 -35 8 -72 0 -163 -118 -261 -193
-160 -38 51 -22 164 29 209 38 33 120 45 156 23z"/>
<path d="M3355 3102 l-80 -17 4 -360 c2 -251 7 -362 15 -367 13 -9 121 -10
151 -2 19 5 20 12 16 130 l-3 124 45 0 44 0 56 -88 c95 -150 172 -206 259
-188 31 6 78 41 78 57 0 4 -40 48 -88 96 -49 48 -98 102 -110 119 l-21 31 48
31 c140 91 157 279 34 381 -83 69 -267 90 -448 53z m283 -142 c32 -20 62 -71
62 -106 0 -67 -75 -123 -176 -132 l-64 -5 0 126 c0 142 -6 134 90 136 39 1 65
-5 88 -19z"/>
<path d="M4152 2856 c-125 -41 -192 -136 -192 -273 0 -100 47 -174 138 -216
67 -31 230 -32 282 -2 28 17 36 28 38 55 2 19 -4 44 -12 55 -14 19 -15 19 -63
2 -85 -30 -190 -16 -207 29 -7 18 1 37 13 29 5 -2 47 0 95 5 150 17 211 67
203 165 -4 63 -35 107 -94 136 -55 27 -145 33 -201 15z m132 -125 c44 -49 -18
-111 -110 -111 -49 0 -54 2 -54 23 0 31 36 86 63 97 38 15 83 11 101 -9z"/>
<path d="M4655 2857 c-27 -8 -65 -21 -82 -30 -27 -15 -33 -23 -33 -51 0 -19 9
-44 19 -57 l19 -24 64 23 c110 39 171 26 180 -37 3 -24 -1 -25 -77 -37 -112
-16 -160 -32 -202 -68 -30 -27 -36 -39 -40 -82 -7 -68 15 -110 70 -135 72 -32
180 -18 232 31 21 20 21 20 43 -10 28 -37 75 -47 127 -26 37 16 38 17 31 59
-4 23 -11 105 -15 182 -9 174 -22 205 -110 250 -44 22 -162 28 -226 12z m166
-304 c4 -51 -27 -89 -77 -99 -45 -8 -74 10 -74 47 0 26 6 33 43 49 55 25 107
26 108 3z"/>
<path d="M5920 2861 c-94 -29 -170 -100 -194 -182 -54 -181 52 -326 244 -337
162 -9 253 52 192 129 -19 22 -20 22 -61 6 -77 -31 -188 -16 -205 29 -4 9 -5
18 -4 19 2 1 45 6 97 13 117 14 176 42 204 95 68 132 -107 278 -273 228z m111
-121 c12 -7 19 -21 19 -40 0 -50 -47 -80 -127 -80 l-46 0 6 36 c12 73 88 116
148 84z"/>
<path d="M6304 2850 c-21 -8 -21 -11 -17 -242 2 -128 6 -239 8 -245 3 -9 26
-13 69 -13 101 0 96 -7 96 139 0 109 3 131 20 159 27 44 71 62 123 50 95 -21
147 92 64 142 -58 36 -109 20 -170 -50 -36 -43 -47 -39 -47 15 0 37 -26 55
-78 54 -26 0 -57 -4 -68 -9z"/>
</g>
</svg>
